<svg width="32" height="33" viewBox="0 0 32 33" fill="none" xmlns="http://www.w3.org/2000/svg">
<circle cx="16" cy="16.5327" r="16" fill="#809D79"/>
<path d="M23.0939 13.0849C22.615 13.2977 22.1095 13.4308 21.5774 13.5106C22.1095 13.1913 22.5352 12.6858 22.7214 12.0739C22.2159 12.3666 21.6572 12.5794 21.0453 12.7124C20.5664 12.207 19.8747 11.8877 19.1298 11.8877C17.6931 11.8877 16.5225 13.0583 16.5225 14.4949C16.5225 14.7078 16.5491 14.894 16.6023 15.0802C14.4474 14.9738 12.5052 13.9362 11.2016 12.34C10.9888 12.739 10.8557 13.1647 10.8557 13.6436C10.8557 14.5482 11.308 15.3463 12.0263 15.8252C11.6007 15.7986 11.2016 15.6922 10.8291 15.5059V15.5325C10.8291 16.8095 11.7337 17.8737 12.9309 18.1132C12.7181 18.1664 12.4786 18.193 12.2392 18.193C12.0796 18.193 11.8933 18.1664 11.7337 18.1398C12.0796 19.1774 13.0373 19.9489 14.1813 19.9489C13.2768 20.6406 12.1594 21.0663 10.9356 21.0663C10.7227 21.0663 10.5099 21.0663 10.3237 21.0397C11.4943 21.7846 12.8511 22.2103 14.3409 22.2103C19.1564 22.2103 21.7902 18.2196 21.7902 14.761C21.7902 14.6546 21.7902 14.5215 21.7902 14.4151C22.2957 14.0693 22.748 13.617 23.0939 13.0849Z" fill="white"/>
</svg>
