<svg width="33" height="33" viewBox="0 0 33 33" fill="none" xmlns="http://www.w3.org/2000/svg">
<circle cx="16.4275" cy="16.5327" r="16" fill="#809D79"/>
<path d="M16.4284 10.186C18.4954 10.186 18.7402 10.1938 19.5568 10.231C20.0478 10.237 20.5341 10.3272 20.9946 10.4976C21.3286 10.6263 21.6319 10.8236 21.8849 11.0767C22.138 11.3298 22.3353 11.6331 22.4641 11.9671C22.6345 12.4276 22.7246 12.9139 22.7307 13.4048C22.7675 14.2214 22.7756 14.4662 22.7756 16.5333C22.7756 18.6004 22.7679 18.8452 22.7307 19.6618C22.7246 20.1528 22.6345 20.6391 22.4641 21.0996C22.3353 21.4335 22.138 21.7368 21.8849 21.9899C21.6319 22.243 21.3286 22.4403 20.9946 22.5691C20.5341 22.7395 20.0478 22.8296 19.5568 22.8356C18.7406 22.8725 18.4958 22.8806 16.4284 22.8806C14.3609 22.8806 14.1161 22.8729 13.2999 22.8356C12.8089 22.8296 12.3226 22.7395 11.8621 22.5691C11.5281 22.4403 11.2249 22.243 10.9718 21.9899C10.7187 21.7368 10.5214 21.4335 10.3926 21.0996C10.2222 20.6391 10.1321 20.1528 10.126 19.6618C10.0892 18.8452 10.0811 18.6004 10.0811 16.5333C10.0811 14.4662 10.0888 14.2214 10.126 13.4048C10.1321 12.9139 10.2222 12.4276 10.3926 11.9671C10.5214 11.6331 10.7187 11.3298 10.9718 11.0767C11.2249 10.8236 11.5281 10.6263 11.8621 10.4976C12.3226 10.3272 12.8089 10.237 13.2999 10.231C14.1165 10.1941 14.3613 10.186 16.4284 10.186ZM16.4284 8.79102C14.327 8.79102 14.0623 8.79986 13.2365 8.83747C12.5939 8.85025 11.9582 8.97191 11.3563 9.19728C10.84 9.39181 10.3723 9.69666 9.98596 10.0906C9.59171 10.4771 9.2866 10.945 9.09195 11.4616C8.86658 12.0635 8.74491 12.6992 8.73213 13.3418C8.69526 14.1669 8.68642 14.4316 8.68642 16.533C8.68642 18.6343 8.69526 18.899 8.73287 19.7248C8.74565 20.3674 8.86731 21.0031 9.09268 21.605C9.28712 22.1216 9.59197 22.5895 9.98596 22.9761C10.3725 23.3701 10.8404 23.6749 11.357 23.8694C11.9589 24.0947 12.5946 24.2164 13.2372 24.2292C14.063 24.266 14.3266 24.2756 16.4291 24.2756C18.5316 24.2756 18.7952 24.2668 19.621 24.2292C20.2635 24.2164 20.8993 24.0947 21.5012 23.8694C22.0153 23.6701 22.4822 23.3657 22.8719 22.9756C23.2617 22.5856 23.5658 22.1185 23.7648 21.6043C23.9901 21.0024 24.1118 20.3667 24.1246 19.7241C24.1614 18.899 24.1703 18.6343 24.1703 16.533C24.1703 14.4316 24.1614 14.1669 24.1238 13.3411C24.1111 12.6985 23.9894 12.0628 23.764 11.4609C23.5696 10.9443 23.2647 10.4764 22.8707 10.0898C22.4842 9.69583 22.0163 9.39098 21.4997 9.19655C20.8978 8.97117 20.2621 8.84951 19.6195 8.83673C18.7944 8.79986 18.5297 8.79102 16.4284 8.79102Z" fill="white"/>
<path d="M16.4299 12.5576C15.6436 12.5576 14.875 12.7908 14.2212 13.2276C13.5674 13.6645 13.0578 14.2854 12.7569 15.0119C12.456 15.7383 12.3773 16.5377 12.5307 17.3089C12.6841 18.0801 13.0627 18.7885 13.6187 19.3445C14.1747 19.9005 14.8831 20.2792 15.6543 20.4326C16.4255 20.586 17.2249 20.5072 17.9514 20.2063C18.6778 19.9054 19.2987 19.3958 19.7356 18.742C20.1724 18.0883 20.4056 17.3196 20.4056 16.5333C20.4056 15.4789 19.9867 14.4676 19.2412 13.7221C18.4956 12.9765 17.4844 12.5576 16.4299 12.5576ZM16.4299 19.1139C15.9195 19.1139 15.4206 18.9626 14.9962 18.679C14.5718 18.3954 14.2411 17.9924 14.0457 17.5209C13.8504 17.0493 13.7993 16.5304 13.8989 16.0298C13.9985 15.5292 14.2442 15.0694 14.6051 14.7085C14.9661 14.3476 15.4259 14.1018 15.9265 14.0022C16.4271 13.9027 16.946 13.9538 17.4175 14.1491C17.8891 14.3444 18.2921 14.6752 18.5757 15.0996C18.8592 15.5239 19.0106 16.0229 19.0106 16.5333C19.0106 17.2177 18.7387 17.8741 18.2547 18.3581C17.7708 18.842 17.1144 19.1139 16.4299 19.1139Z" fill="white"/>
<path d="M20.5619 13.3293C21.075 13.3293 21.4909 12.9133 21.4909 12.4002C21.4909 11.8871 21.075 11.4712 20.5619 11.4712C20.0488 11.4712 19.6328 11.8871 19.6328 12.4002C19.6328 12.9133 20.0488 13.3293 20.5619 13.3293Z" fill="white"/>
</svg>
