<svg width="31" height="24" viewBox="0 0 31 24" fill="none" xmlns="http://www.w3.org/2000/svg">
<path d="M9.24808 21.2176C6.60458 23.8611 2.1275 23.8506 0.877175 20.3274C0.632379 19.6376 0.436655 18.9283 0.292701 18.2046C-0.295061 15.2497 0.00660014 12.1869 1.15954 9.40344C2.31247 6.62005 4.2649 4.241 6.76993 2.5672C9.27499 0.89339 12.2201 -1.29056e-07 15.2329 0C18.2456 1.29056e-07 21.1908 0.89339 23.6957 2.5672C26.2008 4.241 28.1532 6.62005 29.3062 9.40353C30.4591 12.1869 30.7607 15.2497 30.173 18.2046C30.029 18.9283 29.8333 19.6376 29.5885 20.3274C28.3381 23.8506 23.8611 23.8611 21.2176 21.2176L17.1369 17.1369C16.7471 16.7471 16.7874 16.1041 16.8949 15.5634C16.9602 15.2347 16.9267 14.894 16.7984 14.5843C16.6702 14.2747 16.453 14.01 16.1743 13.8238C15.8957 13.6377 15.568 13.5382 15.2329 13.5382C14.8977 13.5382 14.5701 13.6377 14.2914 13.8238C14.0126 14.01 13.7955 14.2747 13.6672 14.5843C13.539 14.894 13.5054 15.2347 13.5708 15.5634C13.6784 16.1041 13.7186 16.7471 13.3287 17.1369L9.24808 21.2176Z" fill="#809D79"/>
</svg>
