<svg width="13" height="13" viewBox="0 0 13 13" fill="none" xmlns="http://www.w3.org/2000/svg">
<g clip-path="url(#clip0_0_490)">
<path d="M6.09685 0.588379C3.54625 0.588379 1.47119 2.66344 1.47119 5.21404C1.47119 6.03047 1.6869 6.83314 2.09497 7.53525C2.1901 7.69894 2.29645 7.85846 2.4111 8.00938L5.89587 12.6717H6.29781L9.78261 8.00941C9.89724 7.85846 10.0036 7.69897 10.0987 7.53528C10.5068 6.83314 10.7225 6.03047 10.7225 5.21404C10.7225 2.66344 8.64746 0.588379 6.09685 0.588379ZM6.09685 6.74806C5.251 6.74806 4.56283 6.0599 4.56283 5.21404C4.56283 4.36818 5.251 3.68002 6.09685 3.68002C6.94271 3.68002 7.63088 4.36818 7.63088 5.21404C7.63088 6.0599 6.94271 6.74806 6.09685 6.74806Z" fill="#2B7D2D"/>
</g>
<defs>
<clipPath id="clip0_0_490">
<rect width="12.0834" height="12.0834" fill="white" transform="translate(0.055603 0.588379)"/>
</clipPath>
</defs>
</svg>
