<svg width="13" height="13" viewBox="0 0 13 13" fill="none" xmlns="http://www.w3.org/2000/svg">
<path d="M8.58407 2.09863C9.25923 2.09863 9.90871 2.36547 10.3865 2.84428C10.8648 3.32207 11.1322 3.96652 11.1322 4.64117V8.61861C11.1322 10.0233 9.98927 11.1612 8.58407 11.1612H3.61026C2.20506 11.1612 1.06268 10.0233 1.06268 8.61861V4.64117C1.06268 3.23648 2.20003 2.09863 3.61026 2.09863H8.58407ZM9.1535 4.7167C9.04777 4.71116 8.94708 4.7469 8.87105 4.81739L6.60089 6.62989C6.30888 6.87207 5.89049 6.87207 5.59395 6.62989L3.32831 4.81739C3.17173 4.70159 2.95524 4.7167 2.82484 4.85263C2.6889 4.98857 2.6738 5.20506 2.78909 5.35611L2.85505 5.42156L5.14585 7.20889C5.4278 7.43042 5.76966 7.55125 6.12763 7.55125C6.48459 7.55125 6.83249 7.43042 7.11393 7.20889L9.3851 5.39135L9.42538 5.35107C9.54571 5.20506 9.54571 4.99361 9.41984 4.8476C9.34986 4.77258 9.25369 4.72676 9.1535 4.7167Z" fill="#2B7D2D"/>
</svg>
