<svg width="11" height="6" viewBox="0 0 11 6" fill="none" xmlns="http://www.w3.org/2000/svg">
<path d="M5.50002 5.66667C5.41228 5.66717 5.32531 5.65036 5.24408 5.61718C5.16286 5.584 5.08898 5.53512 5.02669 5.47333L1.02669 1.47333C0.901153 1.3478 0.830627 1.17753 0.830627 0.999999C0.830627 0.822465 0.901153 0.652202 1.02669 0.526666C1.15222 0.40113 1.32249 0.330605 1.50002 0.330605C1.67756 0.330605 1.84782 0.40113 1.97336 0.526666L5.50002 4.06L9.02669 0.533333C9.15422 0.424115 9.31827 0.367044 9.48606 0.373525C9.65384 0.380005 9.813 0.449561 9.93173 0.56829C10.0505 0.68702 10.12 0.846179 10.1265 1.01396C10.133 1.18175 10.0759 1.3458 9.96669 1.47333L5.96669 5.47333C5.84251 5.5965 5.67492 5.66593 5.50002 5.66667Z" fill="#3D3D3D"/>
</svg>
