<svg width="20" height="18" viewBox="0 0 20 18" fill="none" xmlns="http://www.w3.org/2000/svg">
<path d="M1.20211 8.00186C1.28395 7.98858 1.36676 7.98245 1.44963 7.98353H15.5592L15.2516 7.84043C14.9508 7.69809 14.6772 7.50437 14.4431 7.26803L10.4864 3.31134C9.96527 2.8139 9.87771 2.01366 10.2789 1.41528C10.7458 0.777644 11.6412 0.639196 12.2789 1.1061C12.3304 1.14384 12.3793 1.18498 12.4254 1.22926L19.5803 8.3842C20.1395 8.94274 20.14 9.84877 19.5814 10.4079C19.5811 10.4083 19.5807 10.4087 19.5803 10.4091L12.4254 17.564C11.8658 18.122 10.9597 18.1208 10.4016 17.5612C10.3577 17.5171 10.3167 17.4703 10.2789 17.4209C9.87771 16.8225 9.96527 16.0223 10.4864 15.5248L14.4359 11.561C14.6459 11.3508 14.8872 11.1746 15.1514 11.0387L15.5807 10.8455H1.52838C0.797363 10.8726 0.156012 10.362 0.0186806 9.64347C-0.107826 8.86336 0.421997 8.12841 1.20211 8.00186Z" fill="white"/>
</svg>
